<?xml version="1.0" standalone="no"?>
<!DOCTYPE svg PUBLIC "-//W3C//DTD SVG 20010904//EN"
 "http://www.w3.org/TR/2001/REC-SVG-20010904/DTD/svg10.dtd">
<svg version="1.0" xmlns="http://www.w3.org/2000/svg"
 width="2048.000000pt" height="2042.000000pt" viewBox="0 0 2048.000000 2042.000000"
 preserveAspectRatio="xMidYMid meet">

<g transform="translate(0.000000,2042.000000) scale(0.100000,-0.100000)"
fill="#000000" stroke="none">
<path d="M0 10210 l0 -10210 10240 0 10240 0 0 10210 0 10210 -4582 -1 c-4493
-1 -4580 -1 -4430 -19 232 -28 456 -61 462 -69 3 -4 41 -13 85 -20 219 -34
597 -110 605 -121 3 -4 121 -35 262 -69 141 -35 258 -67 260 -71 3 -7 141 -50
342 -106 28 -8 52 -18 55 -22 3 -5 69 -29 146 -55 164 -53 238 -80 245 -88 8
-8 110 -47 155 -58 60 -16 85 -43 85 -94 0 -23 0 -3128 0 -6900 l0 -6859 32 7
c18 4 65 18 104 31 39 13 80 24 91 24 62 0 209 81 503 278 262 174 320 217
408 305 107 106 266 275 339 362 23 28 53 63 67 80 14 16 45 56 68 87 24 32
61 83 83 112 22 30 47 64 55 76 8 12 34 46 57 76 l42 55 68 -57 c98 -83 204
-179 498 -449 143 -132 420 -384 615 -559 195 -175 450 -415 565 -532 244
-247 496 -489 645 -618 127 -111 424 -387 429 -399 5 -12 -19 -57 -44 -84 -12
-12 -38 -54 -60 -93 -22 -39 -52 -86 -67 -103 -16 -18 -53 -70 -83 -117 -30
-47 -63 -94 -74 -105 -10 -11 -40 -53 -65 -93 -26 -40 -52 -75 -60 -78 -7 -3
-37 -41 -65 -85 -29 -43 -63 -86 -77 -95 -13 -9 -24 -21 -24 -27 0 -5 -17 -31
-37 -56 -21 -25 -45 -54 -53 -65 -8 -10 -34 -40 -58 -66 -59 -67 -82 -97 -82
-108 0 -6 -13 -20 -29 -31 -16 -12 -53 -52 -82 -91 -30 -38 -59 -70 -64 -70
-6 0 -36 -31 -65 -70 -30 -38 -61 -70 -67 -70 -7 0 -13 -4 -13 -9 0 -13 -417
-432 -453 -455 -15 -10 -27 -24 -27 -30 0 -7 -29 -34 -65 -62 -36 -27 -79 -66
-96 -86 -16 -21 -36 -38 -44 -38 -8 0 -15 -4 -15 -9 0 -4 -18 -21 -40 -36 -22
-15 -40 -33 -40 -39 0 -7 -19 -24 -43 -39 -24 -15 -65 -49 -93 -75 -27 -26
-74 -65 -104 -87 -30 -21 -59 -45 -63 -52 -4 -7 -13 -13 -19 -13 -6 0 -21 -10
-33 -22 -33 -34 -102 -88 -112 -88 -5 0 -24 -14 -43 -32 -19 -17 -73 -58 -120
-91 -47 -33 -89 -66 -93 -73 -4 -8 -12 -14 -17 -14 -15 0 -162 -97 -201 -132
-20 -18 -49 -40 -65 -48 -38 -19 -114 -70 -138 -92 -11 -10 -23 -18 -28 -18
-4 0 -32 -15 -61 -34 -29 -19 -70 -41 -90 -50 -20 -8 -37 -19 -37 -23 0 -5
-21 -20 -47 -33 -26 -14 -76 -42 -110 -63 -35 -20 -67 -37 -72 -37 -5 0 -11
-4 -13 -9 -1 -4 -57 -37 -123 -71 -66 -35 -122 -66 -125 -70 -3 -3 -63 -35
-135 -69 -71 -35 -132 -66 -135 -70 -3 -4 -34 -20 -70 -35 -144 -63 -220 -100
-220 -106 0 -4 -10 -10 -22 -13 -13 -3 -72 -26 -133 -52 -60 -25 -119 -49
-130 -52 -11 -3 -27 -12 -35 -19 -8 -7 -49 -25 -90 -39 -41 -15 -111 -41 -155
-57 -44 -16 -89 -32 -100 -35 -11 -4 -22 -9 -25 -13 -4 -6 -232 -84 -350 -120
-25 -8 -47 -17 -50 -21 -6 -8 -324 -100 -412 -119 -32 -7 -58 -16 -58 -20 0
-4 -53 -19 -117 -34 -65 -15 -152 -36 -193 -46 -41 -10 -115 -26 -165 -36 -49
-10 -92 -21 -95 -25 -3 -3 -45 -13 -95 -22 -49 -8 -169 -29 -265 -46 -96 -16
-238 -38 -315 -47 -77 -9 -142 -20 -145 -24 -10 -14 -513 -57 -885 -76 l-130
-6 3 10206 2 10206 -364 0 -364 0 -6 -612 c-3 -337 -13 -2933 -21 -5768 -26
-8494 -45 -14014 -50 -14019 -13 -13 -804 53 -815 68 -3 4 -70 15 -149 24
-115 15 -409 62 -643 104 -16 3 -28 9 -28 14 0 5 -8 9 -18 9 -44 0 -553 118
-562 130 -3 4 -36 14 -75 24 -122 30 -390 108 -395 116 -3 4 -23 12 -45 19
-123 37 -361 117 -365 123 -3 4 -48 23 -100 42 -216 78 -245 89 -250 96 -3 5
-23 15 -45 23 -139 52 -265 108 -265 119 0 4 -7 8 -15 8 -14 0 -60 20 -201 86
-39 19 -76 34 -82 34 -7 0 -12 5 -12 10 0 6 -11 15 -25 20 -48 18 -240 114
-252 125 -6 6 -63 38 -127 69 -64 32 -116 62 -116 67 0 5 -16 15 -36 24 -19 8
-48 24 -64 35 -15 11 -33 20 -39 20 -11 0 -91 49 -101 61 -5 6 -21 16 -117 70
-21 12 -45 27 -54 35 -8 8 -19 14 -24 14 -5 0 -15 7 -24 15 -20 19 -68 51
-145 94 -32 19 -68 45 -79 58 -11 12 -25 23 -30 23 -6 0 -33 17 -61 38 -28 21
-62 45 -76 52 -13 7 -30 19 -37 25 -6 7 -50 38 -97 70 -47 32 -86 61 -86 65 0
4 -31 29 -69 54 -38 26 -84 61 -103 77 -18 17 -64 54 -103 83 -38 29 -90 71
-113 95 -24 23 -61 52 -81 65 -21 13 -62 49 -91 80 -29 31 -59 56 -65 56 -6 0
-31 21 -56 48 -24 26 -68 65 -97 87 -28 21 -52 44 -52 51 0 6 -17 24 -37 39
-21 16 -73 62 -115 104 -42 42 -85 84 -95 94 -63 61 -182 185 -194 203 -8 11
-24 27 -36 35 -12 9 -36 33 -53 55 -41 51 -162 184 -222 245 -27 26 -48 51
-48 56 0 6 -27 39 -60 74 -33 35 -60 65 -60 67 0 1 -23 31 -50 66 -28 35 -50
67 -50 71 0 4 -20 26 -44 49 -24 23 -59 67 -78 97 -19 30 -51 72 -72 93 -20
22 -36 44 -36 49 0 9 -44 71 -72 102 -11 11 -47 63 -81 115 -34 52 -69 102
-78 111 -9 9 -30 39 -45 65 -30 52 -68 107 -96 138 -10 11 -18 24 -18 29 0 6
-18 38 -40 73 -22 35 -40 67 -40 71 0 5 -10 18 -23 30 -12 11 -33 43 -46 70
-25 48 -81 144 -91 153 -3 3 -16 25 -29 50 -25 46 -36 67 -68 133 -10 21 -25
46 -33 55 -9 9 -23 45 -33 80 -10 35 -32 92 -49 128 l-31 64 23 25 c13 14 32
25 42 25 10 0 18 6 18 14 0 17 73 82 131 116 22 14 51 33 62 43 39 33 335 214
625 381 64 36 151 91 314 195 48 31 122 78 165 105 43 27 94 59 113 71 99 62
206 124 415 240 127 70 241 135 255 145 66 46 667 369 861 463 101 49 119 55
119 35 0 -23 130 -275 194 -376 243 -385 546 -686 972 -965 191 -125 282 -171
525 -262 l219 -82 0 1287 0 1288 -1180 4 c-648 2 -1182 6 -1185 9 -7 8 -7
3913 1 3932 15 39 21 39 1212 45 l1152 5 0 1468 c0 808 -1 1469 -3 1469 -18 0
-201 -70 -312 -119 -297 -132 -559 -295 -780 -486 -38 -33 -76 -64 -83 -70
-31 -24 -330 -357 -382 -425 -131 -172 -277 -423 -375 -642 -27 -60 -53 -108
-59 -108 -6 0 -27 15 -46 33 -19 18 -51 45 -70 61 -40 33 -99 86 -258 234 -62
58 -122 113 -132 122 -35 30 -241 222 -375 349 -39 36 -95 88 -125 115 -111
99 -348 325 -489 467 -81 80 -175 170 -211 200 -36 29 -85 74 -110 98 -25 24
-81 75 -125 115 -43 39 -111 101 -150 137 -38 37 -95 88 -125 115 -30 27 -114
109 -187 182 -73 72 -137 132 -143 132 -17 0 -12 15 37 101 40 72 184 284 202
299 3 3 38 48 78 100 60 80 245 323 270 355 4 6 21 28 38 50 16 22 35 47 42
55 6 8 53 69 104 135 51 66 97 125 103 131 6 6 67 81 136 165 260 320 853 869
1043 965 18 9 68 51 112 93 89 84 121 112 180 156 50 37 55 41 81 63 12 9 47
35 78 57 32 22 76 54 99 71 23 17 74 52 112 79 39 27 95 66 125 88 319 225
736 477 985 594 461 217 685 313 837 358 141 43 261 85 388 136 52 22 104 39
116 39 26 0 76 17 84 29 3 4 30 14 60 23 30 9 93 28 140 42 47 14 112 33 145
42 33 9 62 20 65 24 6 8 482 130 510 130 10 0 20 4 22 10 3 10 439 99 588 121
47 6 87 15 90 19 6 9 251 45 500 74 98 12 -561 14 -4437 15 l-4553 1 0 -10210z"/>
</g>
</svg>
